<svg xmlns="http://www.w3.org/2000/svg" version="1.1" xmlns:xlink="http://www.w3.org/1999/xlink" xmlns:svgjs="http://svgjs.com/svgjs" width="1920" height="1080" preserveAspectRatio="none" viewBox="0 0 1920 1080"><g mask="url(&quot;#SvgjsMask1012&quot;)" fill="none"><rect width="1920" height="1080" x="0" y="0" fill="rgba(32, 32, 32, 1)"></rect><path d="M694.87 774.05L701.41 774.05L701.41 780.59L694.87 780.59z" stroke="rgba(249, 217, 31, 1)"></path><path d="M1791.12 1024.09 a23.98 23.98 0 1 0 47.96 0 a23.98 23.98 0 1 0 -47.96 0z" stroke="rgba(113, 237, 122, 1)"></path><path d="M441.01 24.39L518.83 24.39L518.83 102.21L441.01 102.21z" fill="rgba(113, 237, 122, 1)"></path><path d="M109.72 166.97L131.42 166.97L131.42 186.28L109.72 186.28z" fill="rgba(249, 217, 31, 1)"></path><path d="M114.1 759.03L174.58 759.03L174.58 819.51L114.1 819.51z" stroke="rgba(113, 237, 122, 1)"></path><path d="M1425.33 48.55 a16.91 16.91 0 1 0 33.82 0 a16.91 16.91 0 1 0 -33.82 0z" fill="rgba(113, 237, 122, 1)"></path><path d="M300.78 968.08a91.17 91.17 0 1 0 124.5 133.22z" fill="rgba(53, 113, 231, 1)"></path><path d="M1796.96 813.23a97.45 97.45 0 1 0-125.73-148.92z" fill="rgba(53, 113, 231, 1)"></path><path d="M1227.58 1056.3L1303.63 1056.3L1303.63 1092.21L1227.58 1092.21z" fill="rgba(53, 113, 231, 1)"></path><path d="M160.87 534.19L253.87 534.19L253.87 590.77L160.87 590.77z" stroke="rgba(113, 237, 122, 1)"></path><path d="M387.54 121.9a35.1 35.1 0 1 0 20.4 67.18z" fill="rgba(113, 237, 122, 1)"></path><path d="M1673.74 273.62L1759.97 273.62L1759.97 322.08L1673.74 322.08z" fill="rgba(53, 113, 231, 1)"></path><path d="M950.73 793.58L985.13 793.58L985.13 827.98L950.73 827.98z" stroke="rgba(53, 113, 231, 1)"></path><path d="M617.43 965.25a19.59 19.59 0 1 0 37.16-12.43z" fill="rgba(53, 113, 231, 1)"></path><path d="M1143.31 902.64L1213.53 902.64L1213.53 972.86L1143.31 972.86z" stroke="rgba(53, 113, 231, 1)"></path><path d="M1035.05 728.59a95.9 95.9 0 1 0-38.41-187.92z" stroke="rgba(249, 217, 31, 1)"></path><path d="M1381.54 744.81 a60.81 60.81 0 1 0 121.62 0 a60.81 60.81 0 1 0 -121.62 0z" fill="rgba(53, 113, 231, 1)"></path><path d="M1267.92 465.8 a27.18 27.18 0 1 0 54.36 0 a27.18 27.18 0 1 0 -54.36 0z" fill="rgba(249, 217, 31, 1)"></path><path d="M620.91 405.13 a104.88 104.88 0 1 0 209.76 0 a104.88 104.88 0 1 0 -209.76 0z" stroke="rgba(53, 113, 231, 1)"></path><path d="M1344.18 571.15L1365.96 571.15L1365.96 592.93L1344.18 592.93z" fill="rgba(249, 217, 31, 1)"></path><path d="M1538.93 31.91 a90.43 90.43 0 1 0 180.86 0 a90.43 90.43 0 1 0 -180.86 0z" fill="rgba(113, 237, 122, 1)"></path><path d="M1794.66 172.35L1800.82 172.35L1800.82 208.74L1794.66 208.74z" stroke="rgba(113, 237, 122, 1)"></path><path d="M700.72 778.81a17 17 0 1 0 23.49 24.58z" stroke="rgba(53, 113, 231, 1)"></path></g><defs><mask id="SvgjsMask1012"><rect width="1920" height="1080" fill="#ffffff"></rect></mask></defs></svg>