<?xml version="1.0" standalone="no"?>
<!DOCTYPE svg PUBLIC "-//W3C//DTD SVG 20010904//EN"
 "http://www.w3.org/TR/2001/REC-SVG-20010904/DTD/svg10.dtd">
<svg version="1.0" xmlns="http://www.w3.org/2000/svg"
 width="512.000000pt" height="512.000000pt" viewBox="0 0 512.000000 512.000000"
 preserveAspectRatio="xMidYMid meet">
<metadata>
Created by potrace 1.14, written by Peter Selinger 2001-2017
</metadata>
<g transform="translate(0.000000,512.000000) scale(0.100000,-0.100000)"
fill="#000000" stroke="none">
<path d="M1852 5100 c-7 -11 -16 -20 -21 -20 -7 0 -135 -83 -311 -201 -26 -17
-94 -62 -141 -93 -24 -15 -70 -46 -102 -67 -32 -21 -61 -39 -66 -39 -4 0 -16
-9 -26 -20 -10 -11 -22 -20 -26 -20 -4 0 -58 -34 -119 -75 -61 -41 -113 -75
-116 -75 -5 0 -64 -40 -74 -50 -12 -12 -228 -151 -295 -190 -22 -13 -59 -38
-82 -57 -23 -18 -44 -33 -47 -33 -2 0 -55 -34 -116 -75 -61 -41 -113 -75 -116
-75 -3 0 -24 -15 -48 -32 -23 -18 -66 -44 -94 -58 l-51 -25 -1 -1357 c0 -975
3 -1358 11 -1358 6 0 23 -9 37 -21 15 -11 70 -48 122 -82 52 -34 101 -67 108
-74 7 -7 18 -13 23 -13 6 0 30 -15 54 -32 38 -28 84 -59 153 -103 8 -5 64 -43
124 -82 60 -40 111 -73 114 -73 2 0 27 -16 54 -35 27 -19 54 -35 58 -35 5 0
17 -9 27 -20 10 -11 22 -20 26 -20 5 0 45 -25 89 -55 44 -30 82 -55 84 -55 4
0 120 -76 309 -201 49 -33 90 -59 93 -59 3 0 26 -16 51 -35 25 -19 50 -35 55
-35 6 0 23 -10 38 -23 15 -12 57 -40 94 -62 36 -22 66 -46 66 -52 0 -10 161
-13 770 -13 609 0 770 3 770 13 1 6 22 25 48 41 91 57 157 99 195 125 21 14
53 35 72 46 19 11 74 47 122 79 188 126 264 176 267 176 7 0 171 109 189 124
16 15 17 49 17 454 0 240 -4 443 -9 451 -10 16 -17 13 -127 -60 -44 -29 -128
-84 -189 -124 -60 -39 -175 -115 -255 -167 -80 -52 -192 -125 -250 -163 -58
-37 -141 -91 -185 -120 -234 -153 -349 -227 -430 -280 -49 -32 -121 -78 -159
-103 l-69 -45 -31 19 c-32 18 -131 82 -601 389 -258 168 -278 181 -380 247
-155 100 -391 254 -486 317 -47 31 -131 85 -187 121 l-101 65 -3 925 -3 925
26 25 c14 14 68 52 120 84 87 55 215 138 449 291 117 77 291 190 430 280 58
38 170 111 250 163 211 138 355 232 438 286 l74 48 61 -38 c34 -21 154 -98
267 -172 259 -170 333 -218 500 -327 74 -48 171 -111 215 -140 44 -29 141 -92
215 -140 74 -48 173 -113 220 -143 47 -30 96 -62 110 -72 54 -37 72 -43 81
-29 10 16 12 851 3 887 -4 12 -21 29 -38 37 -17 8 -58 34 -91 59 -33 25 -63
45 -67 45 -4 1 -44 26 -88 56 -44 30 -84 55 -89 55 -4 0 -16 9 -26 20 -10 11
-22 20 -26 20 -5 0 -34 18 -66 39 -56 37 -128 85 -162 106 -16 10 -89 58 -243
158 -43 28 -78 55 -78 59 0 4 -314 8 -698 8 -686 0 -697 0 -710 -20z"/>
<path d="M4357 4373 c-4 -3 -7 -207 -7 -453 0 -472 -1 -467 47 -493 12 -7 79
-46 148 -87 70 -41 141 -83 158 -93 18 -10 44 -25 59 -35 35 -23 153 -93 186
-111 15 -8 33 -20 40 -28 7 -7 19 -13 26 -13 8 0 19 -7 26 -15 7 -8 19 -15 26
-15 12 0 14 66 12 412 l-3 412 -52 40 c-28 23 -131 100 -227 171 -97 72 -187
139 -200 150 -13 11 -33 27 -45 35 -13 8 -57 41 -98 73 -77 58 -85 62 -96 50z"/>
<path d="M4375 3288 c-3 -7 -4 -580 -3 -1273 3 -1169 4 -1260 20 -1263 9 -2
34 8 55 21 21 13 94 53 163 89 69 36 150 80 180 98 30 18 64 36 75 41 11 5 40
21 65 35 25 14 70 39 100 55 30 16 63 35 73 43 16 12 17 66 17 882 l0 869 -40
20 c-33 17 -178 101 -329 192 -20 12 -45 27 -56 33 -22 12 -51 29 -191 113
-99 59 -121 66 -129 45z"/>
</g>
</svg>
